<svg width="52" height="53" viewBox="0 0 52 53" fill="none" xmlns="http://www.w3.org/2000/svg">
<path fill-rule="evenodd" clip-rule="evenodd" d="M3.90978 26.5C3.90977 23.5433 4.48116 20.6155 5.59129 17.8839C6.70143 15.1522 8.32858 12.6702 10.3799 10.5795C12.4311 8.48875 14.8663 6.8303 17.5464 5.69882C20.2265 4.56733 23.0991 3.98496 26 3.98496C28.9009 3.98496 31.7735 4.56733 34.4536 5.69882C37.1337 6.8303 39.5689 8.48875 41.6201 10.5795C43.6714 12.6702 45.2986 15.1522 46.4087 17.8839C47.5188 20.6155 48.0902 23.5433 48.0902 26.5C48.0902 32.4714 45.7629 38.1981 41.6201 42.4205C37.4774 46.6429 31.8587 49.015 26 49.015C20.1413 49.015 14.5226 46.6429 10.3799 42.4205C6.23713 38.1981 3.90978 32.4714 3.90978 26.5ZM26 0C22.5856 -5.18565e-08 19.2047 0.685443 16.0502 2.01719C12.8958 3.34894 10.0295 5.30092 7.61522 7.76167C5.2009 10.2224 3.28575 13.1438 1.97913 16.3589C0.67251 19.574 0 23.02 0 26.5C0 29.98 0.67251 33.426 1.97913 36.6411C3.28575 39.8562 5.2009 42.7776 7.61522 45.2383C10.0295 47.6991 12.8958 49.6511 16.0502 50.9828C19.2047 52.3146 22.5856 53 26 53C32.8956 53 39.5088 50.208 44.3848 45.2383C49.2607 40.2686 52 33.5282 52 26.5C52 19.4718 49.2607 12.7314 44.3848 7.76167C39.5088 2.79196 32.8956 0 26 0ZM24.0451 28.4925V9.07775C26.618 8.77746 29.2242 9.0731 31.6693 9.94261C34.1144 10.8121 36.3354 12.2331 38.1666 14.0995C39.9978 15.9658 41.3919 18.2295 42.245 20.7217C43.0981 23.2138 43.3881 25.8701 43.0935 28.4925H24.0451Z" fill="white"/>
</svg>
