<svg width="113" height="20" viewBox="0 0 113 20" fill="none" xmlns="http://www.w3.org/2000/svg">
<path fill-rule="evenodd" clip-rule="evenodd" d="M2.35627 9.96733C2.35627 8.85523 2.57531 7.75402 3.00089 6.72658C3.42647 5.69914 4.05026 4.76558 4.83663 3.97921C5.623 3.19284 6.55656 2.56905 7.584 2.14347C8.61145 1.71789 9.71265 1.49885 10.8247 1.49885C11.9368 1.49885 13.0381 1.71789 14.0655 2.14347C15.0929 2.56905 16.0265 3.19284 16.8129 3.97921C17.5992 4.76558 18.223 5.69914 18.6486 6.72658C19.0742 7.75402 19.2932 8.85523 19.2932 9.96733C19.2932 12.2133 18.401 14.3673 16.8129 15.9554C15.2247 17.5436 13.0707 18.4358 10.8247 18.4358C8.57877 18.4358 6.42478 17.5436 4.83663 15.9554C3.24848 14.3673 2.35627 12.2133 2.35627 9.96733ZM10.8247 0C9.51582 -1.95045e-08 8.21971 0.257812 7.01042 0.758718C5.80113 1.25962 4.70234 1.99381 3.77678 2.91936C2.85123 3.84491 2.11704 4.94371 1.61614 6.153C1.11523 7.36229 0.857422 8.6584 0.857422 9.96733C0.857422 11.2763 1.11523 12.5724 1.61614 13.7817C2.11704 14.991 2.85123 16.0897 3.77678 17.0153C4.70234 17.9408 5.80113 18.675 7.01042 19.1759C8.21971 19.6768 9.51582 19.9347 10.8247 19.9347C13.4682 19.9347 16.0035 18.8845 17.8727 17.0153C19.742 15.1461 20.7921 12.6108 20.7921 9.96733C20.7921 7.32383 19.742 4.7886 17.8727 2.91936C16.0035 1.05013 13.4682 0 10.8247 0ZM10.0753 10.7168V3.41437C11.0617 3.30143 12.0608 3.41263 12.9981 3.73967C13.9355 4.06671 14.7869 4.60117 15.4889 5.30316C16.1909 6.00516 16.7254 6.85659 17.0524 7.79396C17.3795 8.73132 17.4906 9.73042 17.3777 10.7168H10.0753Z" fill="#364EEF"/>
<path d="M39.8766 13.9788C40.0066 13.9788 40.1217 14.029 40.2221 14.1294L41.1613 15.1483C40.6415 15.7921 40.0006 16.2853 39.2387 16.6279C38.4827 16.9705 37.573 17.1418 36.5099 17.1418C35.5589 17.1418 34.7025 16.9793 33.9405 16.6545C33.1845 16.3296 32.5377 15.8778 32.0002 15.2989C31.4627 14.7201 31.0492 14.029 30.7598 13.2257C30.4763 12.4224 30.3346 11.5453 30.3346 10.5943C30.3346 9.63156 30.4881 8.75148 30.7953 7.9541C31.1024 7.1508 31.5336 6.45974 32.0888 5.88089C32.6499 5.30205 33.3174 4.85315 34.0911 4.5342C34.8649 4.20934 35.7213 4.0469 36.6605 4.0469C37.5937 4.0469 38.4206 4.20048 39.1412 4.50762C39.8677 4.81476 40.485 5.2164 40.9929 5.71256L40.1956 6.82004C40.1483 6.89091 40.0863 6.95293 40.0095 7.00609C39.9386 7.05925 39.8382 7.08583 39.7083 7.08583C39.6197 7.08583 39.5281 7.06221 39.4336 7.01495C39.3391 6.96179 39.2357 6.89978 39.1235 6.8289C39.0113 6.75211 38.8814 6.66942 38.7337 6.58082C38.586 6.49222 38.4147 6.41248 38.2198 6.3416C38.0249 6.26482 37.7975 6.2028 37.5376 6.15555C37.2836 6.10239 36.9883 6.07581 36.6516 6.07581C36.0787 6.07581 35.553 6.17917 35.0746 6.3859C34.602 6.58673 34.1945 6.88206 33.8519 7.27189C33.5093 7.65582 33.2435 8.12834 33.0545 8.68946C32.8655 9.24468 32.771 9.87964 32.771 10.5943C32.771 11.3149 32.8714 11.9558 33.0722 12.5169C33.279 13.078 33.5566 13.5506 33.9051 13.9345C34.2536 14.3184 34.6641 14.6137 35.1366 14.8205C35.6091 15.0213 36.1171 15.1217 36.6605 15.1217C36.9853 15.1217 37.2777 15.104 37.5376 15.0686C37.8034 15.0331 38.0456 14.977 38.2641 14.9002C38.4886 14.8234 38.6982 14.726 38.8932 14.6078C39.094 14.4838 39.2919 14.3332 39.4868 14.156C39.5458 14.1028 39.6079 14.0615 39.6728 14.032C39.7378 13.9965 39.8057 13.9788 39.8766 13.9788ZM44.7249 3.83427V17H42.5365V3.83427H44.7249ZM54.7989 7.9098V17H53.461C53.1716 17 52.9885 16.8671 52.9117 16.6013L52.7611 15.8748C52.389 16.2528 51.9785 16.56 51.5296 16.7962C51.0807 17.0266 50.5521 17.1418 49.9437 17.1418C49.4475 17.1418 49.0075 17.0591 48.6236 16.8937C48.2456 16.7224 47.9266 16.4832 47.6667 16.176C47.4068 15.8689 47.2089 15.5056 47.0731 15.0863C46.9432 14.661 46.8782 14.1944 46.8782 13.6864V7.9098H49.0666V13.6864C49.0666 14.2416 49.1936 14.6728 49.4475 14.98C49.7074 15.2812 50.0943 15.4318 50.6082 15.4318C50.9862 15.4318 51.3406 15.3491 51.6714 15.1837C52.0021 15.0124 52.3152 14.7791 52.6105 14.4838V7.9098H54.7989ZM60.0604 17.1418C59.2689 17.1418 58.6605 16.9203 58.2352 16.4773C57.8159 16.0284 57.6062 15.4111 57.6062 14.6256V9.54887H56.6759C56.5578 9.54887 56.4574 9.51048 56.3747 9.43369C56.292 9.35691 56.2506 9.24173 56.2506 9.08816V8.21989L57.7125 7.98068L58.1732 5.49992C58.2027 5.38179 58.2589 5.29024 58.3415 5.22526C58.4242 5.16029 58.5306 5.12781 58.6605 5.12781H59.7946V7.98954H63.5777L64.0473 5.49992C64.0768 5.38179 64.13 5.29024 64.2068 5.22526C64.2895 5.16029 64.3987 5.12781 64.5346 5.12781H65.6598V7.98954H68.0874V9.54887H65.6598V14.4749C65.6598 14.7585 65.7307 14.98 65.8724 15.1394C66.0142 15.2989 66.2061 15.3786 66.4483 15.3786C66.5783 15.3786 66.6905 15.3639 66.785 15.3343C66.8795 15.2989 66.9592 15.2635 67.0242 15.228C67.0951 15.1926 67.1571 15.1601 67.2103 15.1306C67.2634 15.0951 67.3166 15.0774 67.3697 15.0774C67.4347 15.0774 67.4879 15.0951 67.5292 15.1306C67.5706 15.1601 67.6149 15.2074 67.6621 15.2723L68.3177 16.3355C67.9988 16.6013 67.6326 16.8021 67.2191 16.938C66.8057 17.0738 66.3774 17.1418 65.9344 17.1418C65.143 17.1418 64.5346 16.9203 64.1093 16.4773C63.684 16.0284 63.4714 15.4111 63.4714 14.6256V9.54887H59.7946V14.4749C59.7946 14.7585 59.8625 14.98 59.9983 15.1394C60.1401 15.2989 60.3321 15.3786 60.5742 15.3786C60.7101 15.3786 60.8223 15.3639 60.9109 15.3343C61.0054 15.2989 61.0851 15.2635 61.1501 15.228C61.221 15.1926 61.283 15.1601 61.3362 15.1306C61.3893 15.0951 61.4425 15.0774 61.4957 15.0774C61.5606 15.0774 61.6138 15.0951 61.6551 15.1306C61.6965 15.1601 61.7408 15.2074 61.788 15.2723L62.4437 16.3355C62.1247 16.6013 61.7585 16.8021 61.345 16.938C60.9316 17.0738 60.5033 17.1418 60.0604 17.1418ZM75.3382 11.4094C75.3382 11.1259 75.2968 10.8601 75.2141 10.6121C75.1373 10.3581 75.0192 10.1366 74.8597 9.94756C74.7003 9.75855 74.4965 9.61089 74.2484 9.50457C74.0062 9.39235 73.7227 9.33623 73.3979 9.33623C72.7659 9.33623 72.2668 9.51638 71.9005 9.87668C71.5402 10.237 71.3099 10.7479 71.2095 11.4094H75.3382ZM71.1652 12.7296C71.2006 13.1962 71.2833 13.6008 71.4133 13.9434C71.5432 14.28 71.7145 14.5606 71.9271 14.785C72.1398 15.0036 72.3908 15.169 72.6802 15.2812C72.9755 15.3875 73.3004 15.4407 73.6548 15.4407C74.0092 15.4407 74.3134 15.3993 74.5674 15.3166C74.8272 15.2339 75.0517 15.1424 75.2407 15.042C75.4356 14.9416 75.604 14.85 75.7457 14.7673C75.8934 14.6846 76.0351 14.6433 76.171 14.6433C76.3541 14.6433 76.4899 14.7112 76.5785 14.8471L77.2076 15.6444C76.9654 15.928 76.6937 16.1672 76.3925 16.3621C76.0913 16.5511 75.7753 16.7047 75.4445 16.8228C75.1196 16.935 74.7859 17.0148 74.4433 17.062C74.1066 17.1093 73.7788 17.1329 73.4599 17.1329C72.8279 17.1329 72.2402 17.0295 71.6968 16.8228C71.1534 16.6102 70.6808 16.3001 70.2792 15.8925C69.8775 15.4791 69.5615 14.9711 69.3312 14.3686C69.1008 13.7602 68.9857 13.0574 68.9857 12.26C68.9857 11.6398 69.0861 11.058 69.2869 10.5146C69.4877 9.96528 69.7742 9.4898 70.1463 9.08816C70.5243 8.6806 70.9821 8.3587 71.5196 8.12243C72.063 7.88617 72.6743 7.76804 73.3536 7.76804C73.9265 7.76804 74.4551 7.85959 74.9395 8.0427C75.4238 8.2258 75.8402 8.49455 76.1887 8.84894C76.5372 9.19743 76.8089 9.62861 77.0038 10.1425C77.2046 10.6504 77.3051 11.2322 77.3051 11.8879C77.3051 12.2186 77.2696 12.4431 77.1987 12.5612C77.1279 12.6734 76.992 12.7296 76.7912 12.7296H71.1652ZM81.0732 9.48685C81.3567 8.94345 81.6934 8.51817 82.0832 8.21103C82.4731 7.89798 82.9338 7.74146 83.4654 7.74146C83.8847 7.74146 84.2214 7.83301 84.4754 8.01612L84.3336 9.65519C84.3041 9.76151 84.2598 9.83829 84.2007 9.88554C84.1476 9.92689 84.0738 9.94756 83.9793 9.94756C83.8907 9.94756 83.7578 9.9328 83.5806 9.90326C83.4093 9.87373 83.2409 9.85896 83.0755 9.85896C82.8334 9.85896 82.6178 9.8944 82.4288 9.96528C82.2398 10.0362 82.0685 10.1395 81.9149 10.2754C81.7672 10.4053 81.6343 10.5648 81.5162 10.7538C81.404 10.9428 81.2977 11.1584 81.1973 11.4006V17H79.0089V7.9098H80.2936C80.518 7.9098 80.6745 7.95114 80.7631 8.03383C80.8517 8.11062 80.9108 8.25238 80.9403 8.45911L81.0732 9.48685ZM95.1342 14.3775C95.2287 14.3775 95.3114 14.4159 95.3823 14.4927L96.0645 15.228C95.5447 15.8305 94.9127 16.3001 94.1685 16.6367C93.4301 16.9734 92.5353 17.1418 91.4839 17.1418C90.5743 17.1418 89.7474 16.9852 89.0032 16.6722C88.2589 16.3532 87.624 15.9102 87.0983 15.3432C86.5726 14.7703 86.1651 14.0851 85.8756 13.2877C85.5862 12.4903 85.4415 11.6132 85.4415 10.6563C85.4415 9.69949 85.5921 8.82236 85.8934 8.02498C86.1946 7.22759 86.6169 6.54243 87.1603 5.96949C87.7096 5.39655 88.3653 4.95356 89.1272 4.64051C89.8892 4.32156 90.7308 4.16208 91.6523 4.16208C92.556 4.16208 93.3534 4.30679 94.0444 4.59621C94.7355 4.88564 95.3439 5.27842 95.8696 5.77457L95.3025 6.5631C95.2671 6.62217 95.2198 6.67237 95.1608 6.71372C95.1076 6.74916 95.0338 6.76688 94.9393 6.76688C94.833 6.76688 94.703 6.71076 94.5494 6.59854C94.3959 6.48041 94.195 6.35046 93.947 6.20871C93.6989 6.06695 93.3888 5.93996 93.0167 5.82773C92.6446 5.7096 92.1868 5.65054 91.6434 5.65054C90.9878 5.65054 90.3883 5.76571 89.8449 5.99607C89.3015 6.22052 88.8319 6.54833 88.4361 6.97951C88.0463 7.41069 87.7421 7.93638 87.5236 8.55657C87.305 9.17676 87.1958 9.87668 87.1958 10.6563C87.1958 11.4478 87.308 12.1537 87.5324 12.7739C87.7628 13.394 88.0729 13.9197 88.4627 14.3509C88.8585 14.7762 89.3221 15.101 89.8537 15.3255C90.3912 15.5499 90.9701 15.6622 91.5902 15.6622C91.9683 15.6622 92.3079 15.6415 92.6091 15.6001C92.9163 15.5529 93.1968 15.482 93.4508 15.3875C93.7107 15.293 93.9499 15.1749 94.1685 15.0331C94.3929 14.8854 94.6144 14.7112 94.833 14.5104C94.9334 14.4218 95.0338 14.3775 95.1342 14.3775ZM104.989 8.02498V17H104.05C103.825 17 103.683 16.8907 103.624 16.6722L103.5 15.7065C103.11 16.1376 102.673 16.4861 102.189 16.7519C101.705 17.0118 101.149 17.1418 100.523 17.1418C100.033 17.1418 99.5989 17.062 99.2209 16.9025C98.8488 16.7372 98.5357 16.5068 98.2818 16.2115C98.0278 15.9161 97.8358 15.5588 97.7059 15.1394C97.5818 14.7201 97.5198 14.2564 97.5198 13.7484V8.02498H99.0969V13.7484C99.0969 14.4277 99.2504 14.9534 99.5576 15.3255C99.8706 15.6976 100.346 15.8837 100.984 15.8837C101.451 15.8837 101.885 15.7744 102.286 15.5558C102.694 15.3314 103.069 15.0243 103.412 14.6344V8.02498H104.989ZM110.306 17.1418C109.597 17.1418 109.051 16.9439 108.667 16.5481C108.289 16.1524 108.1 15.5824 108.1 14.8382V9.34509H107.019C106.925 9.34509 106.845 9.31851 106.78 9.26535C106.715 9.20629 106.683 9.11769 106.683 8.99956V8.37051L108.153 8.18445L108.517 5.41132C108.534 5.32272 108.573 5.25184 108.632 5.19868C108.697 5.13962 108.779 5.11009 108.88 5.11009H109.677V8.20217H112.273V9.34509H109.677V14.7319C109.677 15.1099 109.769 15.3905 109.952 15.5736C110.135 15.7567 110.371 15.8482 110.661 15.8482C110.826 15.8482 110.968 15.8275 111.086 15.7862C111.21 15.7389 111.316 15.6887 111.405 15.6356C111.493 15.5824 111.567 15.5352 111.626 15.4938C111.691 15.4466 111.747 15.4229 111.795 15.4229C111.877 15.4229 111.951 15.4732 112.016 15.5736L112.477 16.3267C112.205 16.5806 111.877 16.7815 111.493 16.9291C111.109 17.0709 110.714 17.1418 110.306 17.1418Z" fill="#364EEF"/>
</svg>
