<svg width="220" height="40" viewBox="0 0 220 40" fill="none" xmlns="http://www.w3.org/2000/svg">
<path fill-rule="evenodd" clip-rule="evenodd" d="M2.94174 19.5626C2.94174 17.3799 3.37165 15.2186 4.20693 13.2021C5.0422 11.1855 6.26648 9.35326 7.80987 7.80987C9.35326 6.26648 11.1855 5.0422 13.2021 4.20693C15.2186 3.37165 17.3799 2.94174 19.5626 2.94174C21.7453 2.94174 23.9066 3.37165 25.9231 4.20693C27.9396 5.0422 29.7719 6.26648 31.3153 7.80987C32.8587 9.35326 34.083 11.1855 34.9182 13.2021C35.7535 15.2186 36.1834 17.3799 36.1834 19.5626C36.1834 23.9707 34.4323 28.1983 31.3153 31.3153C28.1983 34.4323 23.9707 36.1834 19.5626 36.1834C15.1545 36.1834 10.9269 34.4323 7.80987 31.3153C4.69286 28.1983 2.94174 23.9707 2.94174 19.5626ZM19.5626 0C16.9936 -3.8281e-08 14.4497 0.506001 12.0763 1.48911C9.70286 2.47222 7.5463 3.91319 5.72975 5.72975C3.91319 7.5463 2.47222 9.70286 1.48911 12.0763C0.506001 14.4497 0 16.9936 0 19.5626C0 22.1316 0.506001 24.6754 1.48911 27.0489C2.47222 29.4223 3.91319 31.5789 5.72975 33.3954C7.5463 35.212 9.70286 36.6529 12.0763 37.636C14.4497 38.6192 16.9936 39.1252 19.5626 39.1252C24.7509 39.1252 29.7267 37.0641 33.3954 33.3954C37.0641 29.7267 39.1252 24.7509 39.1252 19.5626C39.1252 14.3743 37.0641 9.39844 33.3954 5.72975C29.7267 2.06105 24.7509 0 19.5626 0ZM18.0917 21.0335V6.70129C20.0275 6.47962 21.9885 6.69786 23.8282 7.33974C25.6679 7.98162 27.339 9.03057 28.7168 10.4084C30.0946 11.7862 31.1435 13.4572 31.7854 15.297C32.4273 17.1367 32.6455 19.0976 32.4239 21.0335H18.0917Z" fill="white"/>
<path d="M76.5825 27.0704C76.8375 27.0704 77.0636 27.1689 77.2607 27.366L79.1039 29.3657C78.0837 30.6293 76.8259 31.5973 75.3305 32.2697C73.8466 32.942 72.0614 33.2782 69.9747 33.2782C68.1083 33.2782 66.4273 32.9594 64.9319 32.3218C63.448 31.6842 62.1786 30.7974 61.1237 29.6613C60.0688 28.5252 59.2573 27.1689 58.6892 25.5923C58.1328 24.0157 57.8546 22.2942 57.8546 20.4278C57.8546 18.5382 58.156 16.8109 58.7588 15.2459C59.3616 13.6693 60.2079 12.3129 61.2976 11.1769C62.3989 10.0408 63.7089 9.15974 65.2275 8.53373C66.7461 7.89614 68.4271 7.57734 70.2703 7.57734C72.1019 7.57734 73.7249 7.87875 75.1392 8.48157C76.5651 9.08439 77.7765 9.87269 78.7735 10.8465L77.2085 13.0201C77.1157 13.1592 76.994 13.2809 76.8433 13.3853C76.7042 13.4896 76.5071 13.5418 76.2521 13.5418C76.0782 13.5418 75.8985 13.4954 75.713 13.4026C75.5276 13.2983 75.3247 13.1766 75.1044 13.0375C74.8842 12.8868 74.6291 12.7245 74.3393 12.5506C74.0495 12.3767 73.7133 12.2202 73.3307 12.0811C72.9482 11.9304 72.5019 11.8087 71.9918 11.7159C71.4933 11.6116 70.9137 11.5594 70.2529 11.5594C69.1284 11.5594 68.0967 11.7623 67.1577 12.168C66.2303 12.5622 65.4304 13.1418 64.758 13.9069C64.0856 14.6604 63.5639 15.5879 63.193 16.6892C62.822 17.7789 62.6365 19.0251 62.6365 20.4278C62.6365 21.8421 62.8336 23.0999 63.2278 24.2012C63.6335 25.3025 64.1784 26.2299 64.8623 26.9834C65.5463 27.7369 66.352 28.3166 67.2794 28.7223C68.2068 29.1165 69.2038 29.3135 70.2703 29.3135C70.9079 29.3135 71.4817 29.2788 71.9918 29.2092C72.5135 29.1397 72.9888 29.0295 73.4177 28.8788C73.8582 28.7281 74.2698 28.5368 74.6523 28.305C75.0465 28.0615 75.4348 27.7659 75.8174 27.4181C75.9333 27.3138 76.055 27.2327 76.1825 27.1747C76.3101 27.1051 76.4434 27.0704 76.5825 27.0704ZM86.098 7.16001V33H81.8029V7.16001H86.098ZM105.87 15.1589V33H103.244C102.676 33 102.317 32.7392 102.166 32.2175L101.871 30.7916C101.14 31.5335 100.335 32.1363 99.4535 32.6001C98.5724 33.0522 97.5349 33.2782 96.3408 33.2782C95.3671 33.2782 94.5034 33.1159 93.7499 32.7913C93.008 32.4551 92.382 31.9856 91.8719 31.3828C91.3618 30.78 90.9735 30.0671 90.7068 29.244C90.4518 28.4093 90.3243 27.4935 90.3243 26.4965V15.1589H94.6193V26.4965C94.6193 27.5862 94.8686 28.4325 95.3671 29.0353C95.8771 29.6265 96.6365 29.9222 97.645 29.9222C98.3869 29.9222 99.0825 29.7599 99.7317 29.4353C100.381 29.0991 100.995 28.6412 101.575 28.0615V15.1589H105.87ZM116.197 33.2782C114.643 33.2782 113.449 32.8435 112.614 31.9741C111.791 31.093 111.38 29.8816 111.38 28.3398V18.3759H109.554C109.322 18.3759 109.125 18.3005 108.963 18.1498C108.8 17.9991 108.719 17.7731 108.719 17.4717V15.7675L111.588 15.298L112.493 10.4291C112.551 10.1973 112.661 10.0176 112.823 9.89007C112.985 9.76255 113.194 9.6988 113.449 9.6988H115.675V15.3154H123.1L124.022 10.4291C124.08 10.1973 124.184 10.0176 124.335 9.89007C124.497 9.76255 124.711 9.6988 124.978 9.6988H127.186V15.3154H131.951V18.3759H127.186V28.0441C127.186 28.6006 127.325 29.0353 127.604 29.3483C127.882 29.6613 128.259 29.8178 128.734 29.8178C128.989 29.8178 129.209 29.7888 129.395 29.7309C129.58 29.6613 129.737 29.5918 129.864 29.5222C130.003 29.4527 130.125 29.3889 130.229 29.3309C130.334 29.2614 130.438 29.2266 130.542 29.2266C130.67 29.2266 130.774 29.2614 130.855 29.3309C130.937 29.3889 131.024 29.4816 131.116 29.6092L132.403 31.6958C131.777 32.2175 131.058 32.6116 130.247 32.8783C129.435 33.1449 128.595 33.2782 127.725 33.2782C126.172 33.2782 124.978 32.8435 124.143 31.9741C123.309 31.093 122.891 29.8816 122.891 28.3398V18.3759H115.675V28.0441C115.675 28.6006 115.808 29.0353 116.075 29.3483C116.353 29.6613 116.73 29.8178 117.205 29.8178C117.472 29.8178 117.692 29.7888 117.866 29.7309C118.051 29.6613 118.208 29.5918 118.335 29.5222C118.474 29.4527 118.596 29.3889 118.701 29.3309C118.805 29.2614 118.909 29.2266 119.014 29.2266C119.141 29.2266 119.245 29.2614 119.327 29.3309C119.408 29.3889 119.495 29.4816 119.587 29.6092L120.874 31.6958C120.248 32.2175 119.529 32.6116 118.718 32.8783C117.906 33.1449 117.066 33.2782 116.197 33.2782ZM146.182 22.0276C146.182 21.4711 146.101 20.9495 145.938 20.4626C145.788 19.9641 145.556 19.5294 145.243 19.1584C144.93 18.7874 144.53 18.4976 144.043 18.2889C143.568 18.0687 143.011 17.9586 142.374 17.9586C141.133 17.9586 140.154 18.3121 139.435 19.0193C138.728 19.7264 138.276 20.7292 138.079 22.0276H146.182ZM137.992 24.6185C138.061 25.5343 138.223 26.3284 138.479 27.0008C138.734 27.6616 139.07 28.2122 139.487 28.6528C139.904 29.0817 140.397 29.4063 140.965 29.6265C141.545 29.8352 142.182 29.9395 142.878 29.9395C143.573 29.9395 144.171 29.8584 144.669 29.6961C145.179 29.5338 145.62 29.3541 145.991 29.157C146.373 28.96 146.704 28.7803 146.982 28.618C147.272 28.4557 147.55 28.3745 147.816 28.3745C148.176 28.3745 148.442 28.5079 148.616 28.7745L149.851 30.3395C149.376 30.8959 148.842 31.3654 148.251 31.748C147.66 32.119 147.04 32.4204 146.39 32.6522C145.753 32.8725 145.098 33.029 144.426 33.1217C143.765 33.2145 143.121 33.2608 142.495 33.2608C141.255 33.2608 140.101 33.058 139.035 32.6522C137.968 32.2349 137.041 31.6263 136.253 30.8264C135.464 30.0149 134.844 29.0179 134.392 27.8355C133.94 26.6414 133.714 25.2619 133.714 23.6969C133.714 22.4797 133.911 21.3378 134.305 20.2713C134.699 19.1932 135.262 18.26 135.992 17.4717C136.734 16.6718 137.632 16.04 138.687 15.5763C139.754 15.1126 140.954 14.8807 142.287 14.8807C143.411 14.8807 144.449 15.0604 145.399 15.4198C146.35 15.7791 147.167 16.3066 147.851 17.0022C148.535 17.6861 149.068 18.5324 149.451 19.5409C149.845 20.5379 150.042 21.6798 150.042 22.9666C150.042 23.6158 149.973 24.0563 149.834 24.2881C149.694 24.5084 149.428 24.6185 149.034 24.6185H137.992ZM157.438 18.2542C157.994 17.1876 158.655 16.353 159.42 15.7502C160.185 15.1357 161.09 14.8285 162.133 14.8285C162.956 14.8285 163.617 15.0082 164.115 15.3676L163.837 18.5846C163.779 18.7932 163.692 18.9439 163.576 19.0367C163.472 19.1178 163.327 19.1584 163.141 19.1584C162.968 19.1584 162.707 19.1294 162.359 19.0714C162.023 19.0135 161.692 18.9845 161.368 18.9845C160.892 18.9845 160.469 19.0541 160.098 19.1932C159.727 19.3323 159.391 19.5351 159.09 19.8018C158.8 20.0568 158.539 20.3698 158.307 20.7408C158.087 21.1117 157.878 21.5349 157.681 22.0102V33H153.386V15.1589H155.908C156.348 15.1589 156.655 15.2401 156.829 15.4024C157.003 15.5531 157.119 15.8313 157.177 16.237L157.438 18.2542ZM185.035 27.8529C185.22 27.8529 185.383 27.9282 185.522 28.0789L186.861 29.5222C185.841 30.7047 184.6 31.6263 183.14 32.2871C181.69 32.9478 179.934 33.2782 177.871 33.2782C176.085 33.2782 174.462 32.971 173.002 32.3566C171.541 31.7306 170.295 30.8612 169.263 29.7483C168.231 28.6238 167.431 27.279 166.863 25.714C166.295 24.149 166.011 22.4275 166.011 20.5495C166.011 18.6715 166.307 16.95 166.898 15.385C167.489 13.82 168.318 12.4752 169.385 11.3507C170.463 10.2263 171.75 9.35681 173.245 8.7424C174.741 8.1164 176.393 7.8034 178.201 7.8034C179.975 7.8034 181.54 8.08742 182.896 8.65546C184.252 9.2235 185.446 9.99441 186.478 10.9682L185.365 12.5158C185.296 12.6317 185.203 12.7303 185.087 12.8114C184.983 12.881 184.838 12.9158 184.652 12.9158C184.444 12.9158 184.189 12.8056 183.887 12.5854C183.586 12.3535 183.192 12.0985 182.705 11.8202C182.218 11.542 181.609 11.2928 180.879 11.0725C180.149 10.8407 179.25 10.7247 178.184 10.7247C176.897 10.7247 175.72 10.9508 174.654 11.4029C173.587 11.8434 172.666 12.4868 171.889 13.3331C171.124 14.1793 170.527 15.2111 170.098 16.4283C169.669 17.6455 169.454 19.0193 169.454 20.5495C169.454 22.1029 169.675 23.4882 170.115 24.7055C170.567 25.9227 171.176 26.9544 171.941 27.8007C172.718 28.6354 173.628 29.273 174.671 29.7135C175.726 30.154 176.862 30.3743 178.079 30.3743C178.821 30.3743 179.488 30.3337 180.079 30.2525C180.682 30.1598 181.233 30.0207 181.731 29.8352C182.241 29.6497 182.711 29.4179 183.14 29.1397C183.58 28.8498 184.015 28.5079 184.444 28.1137C184.641 27.9398 184.838 27.8529 185.035 27.8529ZM204.376 15.385V33H202.533C202.092 33 201.814 32.7855 201.698 32.3566L201.455 30.4612C200.69 31.3075 199.832 31.9914 198.881 32.5131C197.93 33.0232 196.841 33.2782 195.612 33.2782C194.65 33.2782 193.798 33.1217 193.056 32.8087C192.325 32.4841 191.711 32.032 191.213 31.4524C190.714 30.8728 190.337 30.1714 190.082 29.3483C189.839 28.5252 189.717 27.6152 189.717 26.6183V15.385H192.812V26.6183C192.812 27.9514 193.114 28.9832 193.717 29.7135C194.331 30.4438 195.264 30.809 196.516 30.809C197.432 30.809 198.284 30.5945 199.072 30.1656C199.872 29.7251 200.608 29.1223 201.281 28.3571V15.385H204.376ZM214.813 33.2782C213.421 33.2782 212.349 32.8899 211.596 32.1132C210.854 31.3365 210.483 30.2178 210.483 28.7571V17.9759H208.361C208.176 17.9759 208.019 17.9238 207.892 17.8194C207.764 17.7035 207.7 17.5296 207.7 17.2978V16.0632L210.587 15.698L211.3 10.2552C211.335 10.0814 211.41 9.94224 211.526 9.83791C211.654 9.72198 211.816 9.66402 212.013 9.66402H213.578V15.7328H218.673V17.9759H213.578V28.5484C213.578 29.2904 213.758 29.841 214.117 30.2004C214.476 30.5597 214.94 30.7394 215.508 30.7394C215.833 30.7394 216.111 30.6989 216.343 30.6177C216.586 30.525 216.795 30.4264 216.969 30.3221C217.143 30.2178 217.288 30.125 217.404 30.0439C217.531 29.9511 217.641 29.9048 217.734 29.9048C217.896 29.9048 218.041 30.0033 218.169 30.2004L219.073 31.6784C218.54 32.1769 217.896 32.5711 217.143 32.8609C216.389 33.1391 215.612 33.2782 214.813 33.2782Z" fill="white"/>
</svg>
